# Blender 4.1.1
# www.blender.org
mtllib top_note_both.mtl
o Cube
v -1.414214 0.000000 0.000000
v 0.000000 1.000000 0.000000
v 0.000000 -1.000000 0.000000
v 1.414214 0.000000 0.000000
v 0.000000 0.000000 -0.874050
v 0.000000 0.000000 0.874050
vn 0.4219 0.5967 -0.6826
vn 0.4219 0.5967 0.6826
vn -0.4219 0.5967 -0.6826
vn -0.4219 0.5967 0.6826
vn -0.4219 -0.5967 0.6826
vn -0.4219 -0.5967 -0.6826
vn 0.4219 -0.5967 0.6826
vn 0.4219 -0.5967 -0.6826
vt 0.500000 0.750000
vt 0.625000 0.750000
vt 0.500000 1.000000
vt 0.625000 0.000000
vt 0.625000 0.250000
vt 0.500000 0.250000
vt 0.625000 0.500000
vt 0.500000 0.500000
vt 0.375000 0.250000
vt 0.375000 0.500000
vt 0.375000 0.750000
vt 0.500000 0.000000
vt 0.375000 1.000000
s 0
usemtl Material
f 5/1/1 2/2/1 4/3/1
f 4/4/2 2/5/2 6/6/2
f 1/7/3 2/2/3 5/1/3
f 6/6/4 2/5/4 1/8/4
f 3/9/5 6/6/5 1/10/5
f 1/8/6 5/1/6 3/11/6
f 4/12/7 6/6/7 3/9/7
f 3/11/8 5/1/8 4/13/8
