{
	"asset":{
		"generator":"Khronos glTF Blender I/O v4.1.63",
		"version":"2.0"
	},
	"scene":0,
	"scenes":[
		{
			"name":"Scene",
			"nodes":[
				0,
				1,
				2,
				3,
				4,
				5,
				6,
				7,
				8,
				9
			]
		}
	],
	"nodes":[
		{
			"mesh":0,
			"name":"Crash",
			"rotation":[
				0.12187857180833817,
				0.6274886131286621,
				-0.10030371695756912,
				0.7624584436416626
			],
			"scale":[
				0.7601786851882935,
				0.7601786255836487,
				0.7601786851882935
			],
			"translation":[
				-0.5089517831802368,
				0.8787696361541748,
				0.3464348316192627
			]
		},
		{
			"mesh":1,
			"name":"HihatOben",
			"scale":[
				0.5693477392196655,
				0.8497462868690491,
				0.5693477392196655
			],
			"translation":[
				-0.05538910627365112,
				0.6357200741767883,
				0.6859318017959595
			]
		},
		{
			"mesh":2,
			"name":"Ride",
			"rotation":[
				0.15784555673599243,
				0,
				0,
				0.9874638319015503
			],
			"scale":[
				0.951026976108551,
				0.951026976108551,
				0.951026976108551
			],
			"translation":[
				0.4473862946033478,
				0.7214304208755493,
				-0.6310016512870789
			]
		},
		{
			"mesh":3,
			"name":"HihatOben.001",
			"rotation":[
				0,
				0,
				1,
				1.6292068494294654e-07
			],
			"scale":[
				0.5693477392196655,
				0.8497462868690491,
				0.5693477392196655
			],
			"translation":[
				-0.05538910627365112,
				0.6546478271484375,
				0.6859318017959595
			]
		},
		{
			"mesh":4,
			"name":"Cylinder",
			"rotation":[
				0,
				0.5539084076881409,
				0,
				0.8325775861740112
			],
			"translation":[
				-0.055365316569805145,
				0.5012840032577515,
				0.6860684752464294
			]
		},
		{
			"mesh":5,
			"name":"Bassdrum_Unified",
			"rotation":[
				0,
				-0.09966420382261276,
				0,
				0.9950211644172668
			],
			"translation":[
				0.011852728202939034,
				0.062386829406023026,
				-0.23112818598747253
			]
		},
		{
			"mesh":6,
			"name":"Floortom_Unified"
		},
		{
			"mesh":7,
			"name":"Snaredrum_Unified"
		},
		{
			"mesh":8,
			"name":"Drum_HighTom.001",
			"rotation":[
				0.09321131557226181,
				0.06790327280759811,
				-0.12371575832366943,
				0.985593855381012
			],
			"scale":[
				0.7068677544593811,
				1,
				0.7068677544593811
			],
			"translation":[
				-0.18729855120182037,
				0.6258763670921326,
				0.15265481173992157
			]
		},
		{
			"mesh":9,
			"name":"Midtom_Unified",
			"translation":[
				0,
				0.04575547203421593,
				0
			]
		}
	],
	"meshes":[
		{
			"name":"Sphere.001",
			"primitives":[
				{
					"attributes":{
						"POSITION":0,
						"NORMAL":1,
						"TEXCOORD_0":2
					},
					"indices":3
				}
			]
		},
		{
			"name":"Sphere.002",
			"primitives":[
				{
					"attributes":{
						"POSITION":4,
						"NORMAL":5,
						"TEXCOORD_0":6
					},
					"indices":7
				}
			]
		},
		{
			"name":"Sphere",
			"primitives":[
				{
					"attributes":{
						"POSITION":8,
						"NORMAL":9,
						"TEXCOORD_0":10
					},
					"indices":11
				}
			]
		},
		{
			"name":"Sphere.004",
			"primitives":[
				{
					"attributes":{
						"POSITION":12,
						"NORMAL":13,
						"TEXCOORD_0":14
					},
					"indices":7
				}
			]
		},
		{
			"name":"Cylinder.005",
			"primitives":[
				{
					"attributes":{
						"POSITION":15,
						"NORMAL":16,
						"TEXCOORD_0":17
					},
					"indices":18
				},
				{
					"attributes":{
						"POSITION":19,
						"NORMAL":20,
						"TEXCOORD_0":21
					},
					"indices":22
				}
			]
		},
		{
			"name":"Cube.011",
			"primitives":[
				{
					"attributes":{
						"POSITION":23,
						"NORMAL":24,
						"TEXCOORD_0":25
					},
					"indices":26
				},
				{
					"attributes":{
						"POSITION":27,
						"NORMAL":28,
						"TEXCOORD_0":29
					},
					"indices":30
				},
				{
					"attributes":{
						"POSITION":31,
						"NORMAL":32,
						"TEXCOORD_0":33
					},
					"indices":34
				}
			]
		},
		{
			"name":"Cube.013",
			"primitives":[
				{
					"attributes":{
						"POSITION":35,
						"NORMAL":36,
						"TEXCOORD_0":37
					},
					"indices":38
				},
				{
					"attributes":{
						"POSITION":39,
						"NORMAL":40,
						"TEXCOORD_0":41
					},
					"indices":30
				},
				{
					"attributes":{
						"POSITION":42,
						"NORMAL":43,
						"TEXCOORD_0":44
					},
					"indices":34
				}
			]
		},
		{
			"name":"Cylinder.007",
			"primitives":[
				{
					"attributes":{
						"POSITION":45,
						"NORMAL":46,
						"TEXCOORD_0":47
					},
					"indices":48
				},
				{
					"attributes":{
						"POSITION":49,
						"NORMAL":50,
						"TEXCOORD_0":51
					},
					"indices":30
				},
				{
					"attributes":{
						"POSITION":52,
						"NORMAL":53,
						"TEXCOORD_0":54
					},
					"indices":34
				}
			]
		},
		{
			"name":"Cylinder.009",
			"primitives":[
				{
					"attributes":{
						"POSITION":55,
						"NORMAL":56,
						"TEXCOORD_0":57
					},
					"indices":58
				},
				{
					"attributes":{
						"POSITION":59,
						"NORMAL":60,
						"TEXCOORD_0":61
					},
					"indices":30
				},
				{
					"attributes":{
						"POSITION":62,
						"NORMAL":63,
						"TEXCOORD_0":64
					},
					"indices":34
				}
			]
		},
		{
			"name":"Cube.017",
			"primitives":[
				{
					"attributes":{
						"POSITION":65,
						"NORMAL":66,
						"TEXCOORD_0":67
					},
					"indices":68
				},
				{
					"attributes":{
						"POSITION":69,
						"NORMAL":70,
						"TEXCOORD_0":71
					},
					"indices":30
				},
				{
					"attributes":{
						"POSITION":72,
						"NORMAL":73,
						"TEXCOORD_0":74
					},
					"indices":34
				}
			]
		}
	],
	"accessors":[
		{
			"bufferView":0,
			"componentType":5126,
			"count":792,
			"max":[
				0.2669650614261627,
				0.06480612605810165,
				0.26696497201919556
			],
			"min":[
				-0.2669648230075836,
				0.0029682177118957043,
				-0.26696476340293884
			],
			"type":"VEC3"
		},
		{
			"bufferView":1,
			"componentType":5126,
			"count":792,
			"type":"VEC3"
		},
		{
			"bufferView":2,
			"componentType":5126,
			"count":792,
			"type":"VEC2"
		},
		{
			"bufferView":3,
			"componentType":5123,
			"count":4608,
			"type":"SCALAR"
		},
		{
			"bufferView":4,
			"componentType":5126,
			"count":792,
			"max":[
				0.2669650912284851,
				0.07843893021345139,
				0.26696494221687317
			],
			"min":[
				-0.2669648230075836,
				0.013995653949677944,
				-0.26696473360061646
			],
			"type":"VEC3"
		},
		{
			"bufferView":5,
			"componentType":5126,
			"count":792,
			"type":"VEC3"
		},
		{
			"bufferView":6,
			"componentType":5126,
			"count":792,
			"type":"VEC2"
		},
		{
			"bufferView":7,
			"componentType":5123,
			"count":4608,
			"type":"SCALAR"
		},
		{
			"bufferView":8,
			"componentType":5126,
			"count":792,
			"max":[
				0.2669650614261627,
				0.06021539494395256,
				0.26696494221687317
			],
			"min":[
				-0.2669648230075836,
				0.0029682177118957043,
				-0.26696473360061646
			],
			"type":"VEC3"
		},
		{
			"bufferView":9,
			"componentType":5126,
			"count":792,
			"type":"VEC3"
		},
		{
			"bufferView":10,
			"componentType":5126,
			"count":792,
			"type":"VEC2"
		},
		{
			"bufferView":11,
			"componentType":5123,
			"count":4608,
			"type":"SCALAR"
		},
		{
			"bufferView":12,
			"componentType":5126,
			"count":792,
			"max":[
				0.2669650912284851,
				0.07843893021345139,
				0.26696494221687317
			],
			"min":[
				-0.2669648230075836,
				0.013995653949677944,
				-0.26696473360061646
			],
			"type":"VEC3"
		},
		{
			"bufferView":13,
			"componentType":5126,
			"count":792,
			"type":"VEC3"
		},
		{
			"bufferView":14,
			"componentType":5126,
			"count":792,
			"type":"VEC2"
		},
		{
			"bufferView":15,
			"componentType":5126,
			"count":1196,
			"max":[
				0.12279371917247772,
				0.31741511821746826,
				0.1288987100124359
			],
			"min":[
				-0.12279511988162994,
				-0.5011327266693115,
				-0.1732085943222046
			],
			"type":"VEC3"
		},
		{
			"bufferView":16,
			"componentType":5126,
			"count":1196,
			"type":"VEC3"
		},
		{
			"bufferView":17,
			"componentType":5126,
			"count":1196,
			"type":"VEC2"
		},
		{
			"bufferView":18,
			"componentType":5123,
			"count":2955,
			"type":"SCALAR"
		},
		{
			"bufferView":19,
			"componentType":5126,
			"count":241,
			"max":[
				0.14418885111808777,
				-0.4711139500141144,
				0.15078337490558624
			],
			"min":[
				-0.1441875398159027,
				-0.5012091994285583,
				-0.1961919069290161
			],
			"type":"VEC3"
		},
		{
			"bufferView":20,
			"componentType":5126,
			"count":241,
			"type":"VEC3"
		},
		{
			"bufferView":21,
			"componentType":5126,
			"count":241,
			"type":"VEC2"
		},
		{
			"bufferView":22,
			"componentType":5123,
			"count":381,
			"type":"SCALAR"
		},
		{
			"bufferView":23,
			"componentType":5126,
			"count":1134,
			"max":[
				0.8302239775657654,
				0.508497953414917,
				0.29425284266471863
			],
			"min":[
				0.12927022576332092,
				-0.06440448760986328,
				-0.3728342056274414
			],
			"type":"VEC3"
		},
		{
			"bufferView":24,
			"componentType":5126,
			"count":1134,
			"type":"VEC3"
		},
		{
			"bufferView":25,
			"componentType":5126,
			"count":1134,
			"type":"VEC2"
		},
		{
			"bufferView":26,
			"componentType":5123,
			"count":5184,
			"type":"SCALAR"
		},
		{
			"bufferView":27,
			"componentType":5126,
			"count":66,
			"max":[
				0.797656774520874,
				0.48967698216438293,
				0.24441275000572205
			],
			"min":[
				0.16190063953399658,
				-0.04552921652793884,
				-0.32299429178237915
			],
			"type":"VEC3"
		},
		{
			"bufferView":28,
			"componentType":5126,
			"count":66,
			"type":"VEC3"
		},
		{
			"bufferView":29,
			"componentType":5126,
			"count":66,
			"type":"VEC2"
		},
		{
			"bufferView":30,
			"componentType":5123,
			"count":192,
			"type":"SCALAR"
		},
		{
			"bufferView":31,
			"componentType":5126,
			"count":64,
			"max":[
				0.8008812069892883,
				0.47539693117141724,
				0.26384294033050537
			],
			"min":[
				0.15867632627487183,
				-0.031249165534973145,
				-0.34242427349090576
			],
			"type":"VEC3"
		},
		{
			"bufferView":32,
			"componentType":5126,
			"count":64,
			"type":"VEC3"
		},
		{
			"bufferView":33,
			"componentType":5126,
			"count":64,
			"type":"VEC2"
		},
		{
			"bufferView":34,
			"componentType":5123,
			"count":180,
			"type":"SCALAR"
		},
		{
			"bufferView":35,
			"componentType":5126,
			"count":2062,
			"max":[
				1.2685554027557373,
				0.5004925727844238,
				0.20978650450706482
			],
			"min":[
				0.8489826321601868,
				0.09464074671268463,
				-0.20978626608848572
			],
			"type":"VEC3"
		},
		{
			"bufferView":36,
			"componentType":5126,
			"count":2062,
			"type":"VEC3"
		},
		{
			"bufferView":37,
			"componentType":5126,
			"count":2062,
			"type":"VEC2"
		},
		{
			"bufferView":38,
			"componentType":5123,
			"count":5184,
			"type":"SCALAR"
		},
		{
			"bufferView":39,
			"componentType":5126,
			"count":66,
			"max":[
				1.2527414560317993,
				0.4495624303817749,
				0.19397252798080444
			],
			"min":[
				0.8647964596748352,
				0.14557088911533356,
				-0.19397252798080444
			],
			"type":"VEC3"
		},
		{
			"bufferView":40,
			"componentType":5126,
			"count":66,
			"type":"VEC3"
		},
		{
			"bufferView":41,
			"componentType":5126,
			"count":66,
			"type":"VEC2"
		},
		{
			"bufferView":42,
			"componentType":5126,
			"count":64,
			"max":[
				1.2423737049102783,
				0.4767889976501465,
				0.18360468745231628
			],
			"min":[
				0.875164270401001,
				0.11834441125392914,
				-0.18360468745231628
			],
			"type":"VEC3"
		},
		{
			"bufferView":43,
			"componentType":5126,
			"count":64,
			"type":"VEC3"
		},
		{
			"bufferView":44,
			"componentType":5126,
			"count":64,
			"type":"VEC2"
		},
		{
			"bufferView":45,
			"componentType":5126,
			"count":2066,
			"max":[
				0.3838106095790863,
				0.5364933609962463,
				0.49578413367271423
			],
			"min":[
				0.013558924198150635,
				0.35649338364601135,
				0.12553243339061737
			],
			"type":"VEC3"
		},
		{
			"bufferView":46,
			"componentType":5126,
			"count":2066,
			"type":"VEC3"
		},
		{
			"bufferView":47,
			"componentType":5126,
			"count":2066,
			"type":"VEC2"
		},
		{
			"bufferView":48,
			"componentType":5123,
			"count":5184,
			"type":"SCALAR"
		},
		{
			"bufferView":49,
			"componentType":5126,
			"count":66,
			"max":[
				0.3706892132759094,
				0.5142802000045776,
				0.48265889286994934
			],
			"min":[
				0.02668742835521698,
				0.37870654463768005,
				0.13865706324577332
			],
			"type":"VEC3"
		},
		{
			"bufferView":50,
			"componentType":5126,
			"count":66,
			"type":"VEC3"
		},
		{
			"bufferView":51,
			"componentType":5126,
			"count":66,
			"type":"VEC2"
		},
		{
			"bufferView":52,
			"componentType":5126,
			"count":64,
			"max":[
				0.3614957928657532,
				0.5261550545692444,
				0.4734654426574707
			],
			"min":[
				0.035880863666534424,
				0.3668317198753357,
				0.14785051345825195
			],
			"type":"VEC3"
		},
		{
			"bufferView":53,
			"componentType":5126,
			"count":64,
			"type":"VEC3"
		},
		{
			"bufferView":54,
			"componentType":5126,
			"count":64,
			"type":"VEC2"
		},
		{
			"bufferView":55,
			"componentType":5126,
			"count":2062,
			"max":[
				0.19013066589832306,
				0.07099458575248718,
				0.19013071060180664
			],
			"min":[
				-0.19013072550296783,
				-0.10601755231618881,
				-0.19013071060180664
			],
			"type":"VEC3"
		},
		{
			"bufferView":56,
			"componentType":5126,
			"count":2062,
			"type":"VEC3"
		},
		{
			"bufferView":57,
			"componentType":5126,
			"count":2062,
			"type":"VEC2"
		},
		{
			"bufferView":58,
			"componentType":5123,
			"count":5184,
			"type":"SCALAR"
		},
		{
			"bufferView":59,
			"componentType":5126,
			"count":66,
			"max":[
				0.17200089991092682,
				0.04878140985965729,
				0.172000914812088
			],
			"min":[
				-0.17200089991092682,
				-0.08380439132452011,
				-0.172000914812088
			],
			"type":"VEC3"
		},
		{
			"bufferView":60,
			"componentType":5126,
			"count":66,
			"type":"VEC3"
		},
		{
			"bufferView":61,
			"componentType":5126,
			"count":66,
			"type":"VEC2"
		},
		{
			"bufferView":62,
			"componentType":5126,
			"count":64,
			"max":[
				0.16280744969844818,
				0.06065625697374344,
				0.16280746459960938
			],
			"min":[
				-0.16280746459960938,
				-0.09567920863628387,
				-0.16280746459960938
			],
			"type":"VEC3"
		},
		{
			"bufferView":63,
			"componentType":5126,
			"count":64,
			"type":"VEC3"
		},
		{
			"bufferView":64,
			"componentType":5126,
			"count":64,
			"type":"VEC2"
		},
		{
			"bufferView":65,
			"componentType":5126,
			"count":2164,
			"max":[
				0.24000626802444458,
				0.6991561055183411,
				0.06267997622489929
			],
			"min":[
				-0.09911143034696579,
				0.4156102240085602,
				-0.2797691226005554
			],
			"type":"VEC3"
		},
		{
			"bufferView":66,
			"componentType":5126,
			"count":2164,
			"type":"VEC3"
		},
		{
			"bufferView":67,
			"componentType":5126,
			"count":2164,
			"type":"VEC2"
		},
		{
			"bufferView":68,
			"componentType":5123,
			"count":5184,
			"type":"SCALAR"
		},
		{
			"bufferView":69,
			"componentType":5126,
			"count":66,
			"max":[
				0.22836393117904663,
				0.6749513745307922,
				0.05045141279697418
			],
			"min":[
				-0.08766106516122818,
				0.43981486558914185,
				-0.2677411437034607
			],
			"type":"VEC3"
		},
		{
			"bufferView":70,
			"componentType":5126,
			"count":66,
			"type":"VEC3"
		},
		{
			"bufferView":71,
			"componentType":5126,
			"count":66,
			"type":"VEC2"
		},
		{
			"bufferView":72,
			"componentType":5126,
			"count":64,
			"max":[
				0.22358745336532593,
				0.6854678988456726,
				0.04607731103897095
			],
			"min":[
				-0.08288457244634628,
				0.429298460483551,
				-0.26336705684661865
			],
			"type":"VEC3"
		},
		{
			"bufferView":73,
			"componentType":5126,
			"count":64,
			"type":"VEC3"
		},
		{
			"bufferView":74,
			"componentType":5126,
			"count":64,
			"type":"VEC2"
		}
	],
	"bufferViews":[
		{
			"buffer":0,
			"byteLength":9504,
			"byteOffset":0,
			"target":34962
		},
		{
			"buffer":0,
			"byteLength":9504,
			"byteOffset":9504,
			"target":34962
		},
		{
			"buffer":0,
			"byteLength":6336,
			"byteOffset":19008,
			"target":34962
		},
		{
			"buffer":0,
			"byteLength":9216,
			"byteOffset":25344,
			"target":34963
		},
		{
			"buffer":0,
			"byteLength":9504,
			"byteOffset":34560,
			"target":34962
		},
		{
			"buffer":0,
			"byteLength":9504,
			"byteOffset":44064,
			"target":34962
		},
		{
			"buffer":0,
			"byteLength":6336,
			"byteOffset":53568,
			"target":34962
		},
		{
			"buffer":0,
			"byteLength":9216,
			"byteOffset":59904,
			"target":34963
		},
		{
			"buffer":0,
			"byteLength":9504,
			"byteOffset":69120,
			"target":34962
		},
		{
			"buffer":0,
			"byteLength":9504,
			"byteOffset":78624,
			"target":34962
		},
		{
			"buffer":0,
			"byteLength":6336,
			"byteOffset":88128,
			"target":34962
		},
		{
			"buffer":0,
			"byteLength":9216,
			"byteOffset":94464,
			"target":34963
		},
		{
			"buffer":0,
			"byteLength":9504,
			"byteOffset":103680,
			"target":34962
		},
		{
			"buffer":0,
			"byteLength":9504,
			"byteOffset":113184,
			"target":34962
		},
		{
			"buffer":0,
			"byteLength":6336,
			"byteOffset":122688,
			"target":34962
		},
		{
			"buffer":0,
			"byteLength":14352,
			"byteOffset":129024,
			"target":34962
		},
		{
			"buffer":0,
			"byteLength":14352,
			"byteOffset":143376,
			"target":34962
		},
		{
			"buffer":0,
			"byteLength":9568,
			"byteOffset":157728,
			"target":34962
		},
		{
			"buffer":0,
			"byteLength":5910,
			"byteOffset":167296,
			"target":34963
		},
		{
			"buffer":0,
			"byteLength":2892,
			"byteOffset":173208,
			"target":34962
		},
		{
			"buffer":0,
			"byteLength":2892,
			"byteOffset":176100,
			"target":34962
		},
		{
			"buffer":0,
			"byteLength":1928,
			"byteOffset":178992,
			"target":34962
		},
		{
			"buffer":0,
			"byteLength":762,
			"byteOffset":180920,
			"target":34963
		},
		{
			"buffer":0,
			"byteLength":13608,
			"byteOffset":181684,
			"target":34962
		},
		{
			"buffer":0,
			"byteLength":13608,
			"byteOffset":195292,
			"target":34962
		},
		{
			"buffer":0,
			"byteLength":9072,
			"byteOffset":208900,
			"target":34962
		},
		{
			"buffer":0,
			"byteLength":10368,
			"byteOffset":217972,
			"target":34963
		},
		{
			"buffer":0,
			"byteLength":792,
			"byteOffset":228340,
			"target":34962
		},
		{
			"buffer":0,
			"byteLength":792,
			"byteOffset":229132,
			"target":34962
		},
		{
			"buffer":0,
			"byteLength":528,
			"byteOffset":229924,
			"target":34962
		},
		{
			"buffer":0,
			"byteLength":384,
			"byteOffset":230452,
			"target":34963
		},
		{
			"buffer":0,
			"byteLength":768,
			"byteOffset":230836,
			"target":34962
		},
		{
			"buffer":0,
			"byteLength":768,
			"byteOffset":231604,
			"target":34962
		},
		{
			"buffer":0,
			"byteLength":512,
			"byteOffset":232372,
			"target":34962
		},
		{
			"buffer":0,
			"byteLength":360,
			"byteOffset":232884,
			"target":34963
		},
		{
			"buffer":0,
			"byteLength":24744,
			"byteOffset":233244,
			"target":34962
		},
		{
			"buffer":0,
			"byteLength":24744,
			"byteOffset":257988,
			"target":34962
		},
		{
			"buffer":0,
			"byteLength":16496,
			"byteOffset":282732,
			"target":34962
		},
		{
			"buffer":0,
			"byteLength":10368,
			"byteOffset":299228,
			"target":34963
		},
		{
			"buffer":0,
			"byteLength":792,
			"byteOffset":309596,
			"target":34962
		},
		{
			"buffer":0,
			"byteLength":792,
			"byteOffset":310388,
			"target":34962
		},
		{
			"buffer":0,
			"byteLength":528,
			"byteOffset":311180,
			"target":34962
		},
		{
			"buffer":0,
			"byteLength":768,
			"byteOffset":311708,
			"target":34962
		},
		{
			"buffer":0,
			"byteLength":768,
			"byteOffset":312476,
			"target":34962
		},
		{
			"buffer":0,
			"byteLength":512,
			"byteOffset":313244,
			"target":34962
		},
		{
			"buffer":0,
			"byteLength":24792,
			"byteOffset":313756,
			"target":34962
		},
		{
			"buffer":0,
			"byteLength":24792,
			"byteOffset":338548,
			"target":34962
		},
		{
			"buffer":0,
			"byteLength":16528,
			"byteOffset":363340,
			"target":34962
		},
		{
			"buffer":0,
			"byteLength":10368,
			"byteOffset":379868,
			"target":34963
		},
		{
			"buffer":0,
			"byteLength":792,
			"byteOffset":390236,
			"target":34962
		},
		{
			"buffer":0,
			"byteLength":792,
			"byteOffset":391028,
			"target":34962
		},
		{
			"buffer":0,
			"byteLength":528,
			"byteOffset":391820,
			"target":34962
		},
		{
			"buffer":0,
			"byteLength":768,
			"byteOffset":392348,
			"target":34962
		},
		{
			"buffer":0,
			"byteLength":768,
			"byteOffset":393116,
			"target":34962
		},
		{
			"buffer":0,
			"byteLength":512,
			"byteOffset":393884,
			"target":34962
		},
		{
			"buffer":0,
			"byteLength":24744,
			"byteOffset":394396,
			"target":34962
		},
		{
			"buffer":0,
			"byteLength":24744,
			"byteOffset":419140,
			"target":34962
		},
		{
			"buffer":0,
			"byteLength":16496,
			"byteOffset":443884,
			"target":34962
		},
		{
			"buffer":0,
			"byteLength":10368,
			"byteOffset":460380,
			"target":34963
		},
		{
			"buffer":0,
			"byteLength":792,
			"byteOffset":470748,
			"target":34962
		},
		{
			"buffer":0,
			"byteLength":792,
			"byteOffset":471540,
			"target":34962
		},
		{
			"buffer":0,
			"byteLength":528,
			"byteOffset":472332,
			"target":34962
		},
		{
			"buffer":0,
			"byteLength":768,
			"byteOffset":472860,
			"target":34962
		},
		{
			"buffer":0,
			"byteLength":768,
			"byteOffset":473628,
			"target":34962
		},
		{
			"buffer":0,
			"byteLength":512,
			"byteOffset":474396,
			"target":34962
		},
		{
			"buffer":0,
			"byteLength":25968,
			"byteOffset":474908,
			"target":34962
		},
		{
			"buffer":0,
			"byteLength":25968,
			"byteOffset":500876,
			"target":34962
		},
		{
			"buffer":0,
			"byteLength":17312,
			"byteOffset":526844,
			"target":34962
		},
		{
			"buffer":0,
			"byteLength":10368,
			"byteOffset":544156,
			"target":34963
		},
		{
			"buffer":0,
			"byteLength":792,
			"byteOffset":554524,
			"target":34962
		},
		{
			"buffer":0,
			"byteLength":792,
			"byteOffset":555316,
			"target":34962
		},
		{
			"buffer":0,
			"byteLength":528,
			"byteOffset":556108,
			"target":34962
		},
		{
			"buffer":0,
			"byteLength":768,
			"byteOffset":556636,
			"target":34962
		},
		{
			"buffer":0,
			"byteLength":768,
			"byteOffset":557404,
			"target":34962
		},
		{
			"buffer":0,
			"byteLength":512,
			"byteOffset":558172,
			"target":34962
		}
	],
	"buffers":[
		{
			"byteLength":558684,
			"uri":"Drum.bin"
		}
	]
}
